<?xml version="1.0" encoding="utf-8"?>
<!-- Generator: Adobe Illustrator 16.0.0, SVG Export Plug-In . SVG Version: 6.00 Build 0)  -->
<!DOCTYPE svg PUBLIC "-//W3C//DTD SVG 1.1//EN" "http://www.w3.org/Graphics/SVG/1.1/DTD/svg11.dtd">
<svg version="1.1" id="Layer_1" xmlns="http://www.w3.org/2000/svg" xmlns:xlink="http://www.w3.org/1999/xlink" x="0px" y="0px"
	 width="180px" height="180px" viewBox="0 0 180 180" enable-background="new 0 0 180 180" xml:space="preserve">
<path fill="#F36E00" d="M178.665,123h-44.6l33.194-33.046L88.309,11.077L9.357,90.233L31.92,113H10.574l-9.179,27h10.632
	c-0.159,1-0.416,1.115-0.771,1.63c-0.387,0.559-0.876,1.088-1.455,1.535c-0.553,0.428-1.158,0.511-1.797,0.75
	C7.394,144.144,6.81,144,6.218,144H4.591l-2.348,10h2.799c2.26,0,4.515-1.002,6.687-2.088c2.145-1.047,4.02-2.721,5.572-4.528
	c1.568-1.828,2.666-4.01,3.261-6.183L20.849,140h0.7c0.719,2,1.83,2.953,3.318,3.957c1.777,1.2,3.913,1.83,6.348,1.83l12.543,0.016
	l1.429-5.213c0.704,1.309,1.683,2.419,2.937,3.3c1.729,1.217,4.05,1.865,6.393,1.925L65,145.82V146h0.076l23.232,23l20.766-21
	h61.301L178.665,123z"/>
<g>
	<path fill="#FFFFFF" d="M74.173,113.351h-2.195v2.037h2.446v0.611h-3.175v-5.647h3.05v0.611h-2.321v1.785h2.195V113.351z"/>
	<path fill="#FFFFFF" d="M75.319,115.111c0.328,0.201,0.805,0.368,1.308,0.368c0.746,0,1.182-0.395,1.182-0.964
		c0-0.528-0.301-0.829-1.064-1.122c-0.921-0.328-1.491-0.805-1.491-1.601c0-0.88,0.729-1.534,1.827-1.534
		c0.578,0,0.997,0.135,1.248,0.276l-0.201,0.595c-0.184-0.1-0.561-0.268-1.072-0.268c-0.771,0-1.064,0.461-1.064,0.846
		c0,0.529,0.344,0.788,1.123,1.09c0.956,0.368,1.442,0.829,1.442,1.659c0,0.871-0.646,1.626-1.978,1.626
		c-0.544,0-1.14-0.159-1.441-0.36L75.319,115.111z"/>
	<path fill="#FFFFFF" d="M80.674,110.972h-1.719v-0.62h4.182v0.62h-1.726v5.027h-0.737V110.972z"/>
	<path fill="#FFFFFF" d="M85.439,115.563c0-0.309,0.209-0.527,0.503-0.527s0.494,0.219,0.494,0.527c0,0.303-0.192,0.529-0.502,0.529
		C85.641,116.092,85.439,115.865,85.439,115.563z"/>
	<path fill="#FFFFFF" d="M88.992,115.999v-0.453l0.578-0.561c1.391-1.323,2.019-2.028,2.028-2.85c0-0.553-0.268-1.064-1.081-1.064
		c-0.495,0-0.905,0.252-1.156,0.461l-0.235-0.52c0.377-0.318,0.914-0.553,1.542-0.553c1.173,0,1.667,0.804,1.667,1.584
		c0,1.006-0.729,1.818-1.877,2.924l-0.436,0.403v0.017h2.447v0.611H88.992z"/>
	<path fill="#FFFFFF" d="M96.959,113.218c0,1.851-0.687,2.874-1.893,2.874c-1.065,0-1.786-0.997-1.803-2.8
		c0-1.826,0.788-2.832,1.895-2.832C96.306,110.46,96.959,111.482,96.959,113.218z M94.001,113.301c0,1.416,0.436,2.221,1.106,2.221
		c0.754,0,1.114-0.88,1.114-2.271c0-1.341-0.344-2.221-1.105-2.221C94.47,111.03,94.001,111.817,94.001,113.301z"/>
	<path fill="#FFFFFF" d="M99.287,111.24h-0.017l-0.947,0.511l-0.142-0.563l1.189-0.636H100v5.446h-0.713V111.24z"/>
	<path fill="#FFFFFF" d="M105.654,113.218c0,1.851-0.687,2.874-1.894,2.874c-1.064,0-1.784-0.997-1.801-2.8
		c0-1.826,0.787-2.832,1.894-2.832C105.001,110.46,105.654,111.482,105.654,113.218z M102.696,113.301
		c0,1.416,0.437,2.221,1.107,2.221c0.754,0,1.114-0.88,1.114-2.271c0-1.341-0.344-2.221-1.107-2.221
		C103.166,111.03,102.696,111.817,102.696,113.301z"/>
</g>
<g>
	<path fill="#FFFFFF" d="M130.078,76.324c-2.33,0-5.078,0.845-6.078,2.243V76H54v2.522c-1-1.372-3.707-2.198-6.016-2.198
		c-5.248,0-9.488,4.271-9.488,9.519c0,5.249,4.225,9.518,9.473,9.518c2.308,0,5.03-0.826,6.03-2.197V95h5v9h59v-9h6v-1.881
		c1,1.397,3.748,2.242,6.078,2.242c5.25,0,9.52-4.27,9.52-9.518C139.598,80.595,135.328,76.324,130.078,76.324z M48.046,91.919
		c-3.351,0-6.077-2.725-6.077-6.076c0-3.351,2.726-6.077,6.077-6.077s6.076,2.726,6.076,6.077
		C54.122,89.194,51.397,91.919,48.046,91.919z M121,91H57V80h64V91z M130.031,91.919c-3.35,0-6.075-2.725-6.075-6.076
		c0-3.351,2.726-6.077,6.075-6.077c3.351,0,6.076,2.726,6.076,6.077C136.107,89.194,133.382,91.919,130.031,91.919z"/>
</g>
<g>
	<g>
		<path fill="#FFFFFF" d="M18.203,140.567c-0.514,1.874-1.454,3.608-2.822,5.203c-1.368,1.593-2.998,2.853-4.891,3.777
			c-1.9,0.948-3.818,1.423-5.756,1.422l1.181-4.309c0.844,0.001,1.688-0.157,2.533-0.475c0.844-0.315,1.629-0.753,2.354-1.313
			c0.756-0.584,1.39-1.248,1.904-1.99s0.881-1.515,1.101-2.319l5.05-18.439l4.397,0.001L18.203,140.567z"/>
	</g>
	<g>
		<path fill="#FFFFFF" d="M25.786,122.128l4.434,0.001l-2.941,10.735c-0.239,0.877-0.298,1.704-0.176,2.484
			c0.121,0.779,0.409,1.474,0.863,2.081c0.454,0.609,1.034,1.079,1.739,1.407c0.705,0.329,1.504,0.494,2.398,0.494l6.483,0.002
			l4.709-17.199l4.434,0.003l-5.9,21.544l-10.916-0.005c-2.012-0.001-3.73-0.481-5.156-1.444c-1.426-0.962-2.396-2.271-2.912-3.927
			c-0.547-1.631-0.547-3.445,0-5.442L25.786,122.128z"/>
	</g>
	<g>
		<path fill="#FFFFFF" d="M71.127,122.145l-5.9,21.544l-11.213-0.004c-1.924-0.05-3.579-0.562-4.964-1.535
			c-1.386-0.976-2.338-2.278-2.861-3.909c-0.515-1.656-0.513-3.434,0.007-5.332c0.533-1.947,1.517-3.748,2.951-5.403
			s3.129-2.97,5.085-3.942c1.949-0.948,3.917-1.423,5.904-1.423c1.217,0.001,2.341,0.184,3.372,0.55
			c1.03,0.365,1.911,0.89,2.643,1.571l0.58-2.117L71.127,122.145z M63.781,132.914c0.233-0.852,0.291-1.673,0.172-2.464
			c-0.119-0.792-0.405-1.492-0.859-2.101s-1.04-1.078-1.757-1.407c-0.718-0.329-1.511-0.493-2.38-0.493
			c-1.739-0.001-3.465,0.632-5.178,1.897c-0.788,0.608-1.451,1.309-1.99,2.1c-0.54,0.791-0.926,1.612-1.16,2.464
			c-0.474,1.729-0.256,3.25,0.65,4.564c1.001,1.242,2.384,1.864,4.147,1.864l6.595,0.003L63.781,132.914z"/>
	</g>
	<g>
		<path fill="#FFFFFF" d="M88.24,126.46l-5.551-0.001c-1.738-0.002-3.464,0.631-5.176,1.896c-0.788,0.608-1.453,1.308-1.992,2.099
			c-0.54,0.792-0.926,1.613-1.159,2.465l-2.95,10.771l-4.433-0.001l3.02-11.027c0.569-1.899,1.573-3.657,3.01-5.276
			c1.436-1.618,3.117-2.902,5.041-3.852c1.943-0.924,3.882-1.386,5.82-1.386l5.551,0.002L88.24,126.46z"/>
	</g>
	<g>
		<path fill="#FFFFFF" d="M111.55,122.16l-5.899,21.544l-11.215-0.005c-1.924-0.05-3.579-0.562-4.963-1.535
			c-1.386-0.975-2.338-2.277-2.86-3.909c-0.516-1.655-0.514-3.434,0.006-5.331c0.534-1.948,1.517-3.749,2.952-5.405
			c1.434-1.654,3.129-2.968,5.086-3.941c1.947-0.949,3.915-1.423,5.903-1.422c1.216,0,2.34,0.184,3.371,0.55
			c1.029,0.364,1.911,0.889,2.644,1.57l0.579-2.118L111.55,122.16z M104.204,132.93c0.232-0.852,0.29-1.674,0.172-2.465
			s-0.405-1.491-0.859-2.101c-0.454-0.608-1.041-1.077-1.758-1.406c-0.718-0.33-1.511-0.493-2.38-0.494
			c-1.738,0-3.464,0.633-5.177,1.897c-0.787,0.607-1.452,1.308-1.99,2.099c-0.541,0.792-0.927,1.612-1.16,2.465
			c-0.473,1.729-0.256,3.25,0.65,4.564c1.002,1.243,2.383,1.863,4.147,1.864l6.594,0.003L104.204,132.93z"/>
	</g>
	<g>
		<path fill="#FFFFFF" d="M112.158,139.639l7.48,0.002l-0.506,1.85l-9.366-0.004l1.82-6.648c0.341-1.242,0.974-2.399,1.901-3.471
			c0.928-1.072,2.021-1.918,3.279-2.539s2.525-0.932,3.805-0.931l2.283,0.001l-0.506,1.849l-2.283-0.001
			c-0.688,0-1.386,0.128-2.095,0.388c-0.71,0.259-1.375,0.626-1.99,1.103c-0.617,0.475-1.143,1.026-1.578,1.652
			c-0.436,0.628-0.746,1.276-0.93,1.95L112.158,139.639z"/>
	</g>
	<g>
		<path fill="#FFFFFF" d="M123.489,127.898h1.901l-3.723,13.593l-1.901-0.001L123.489,127.898z"/>
	</g>
	<g>
		<path fill="#FFFFFF" d="M131.594,132.826c0.6,0.414,1.013,0.979,1.241,1.693c0.213,0.725,0.201,1.518-0.033,2.377l-0.005,0.016
			c-0.235,0.859-0.657,1.646-1.264,2.361c-0.608,0.714-1.33,1.284-2.164,1.708c-0.835,0.425-1.681,0.636-2.536,0.636
			c-0.846-0.001-1.57-0.208-2.176-0.622c-0.605-0.415-1.014-0.984-1.228-1.71c-0.229-0.703-0.224-1.497,0.018-2.377l0.003-0.015
			c0.236-0.86,0.657-1.649,1.267-2.369s1.336-1.286,2.179-1.699c0.82-0.415,1.664-0.621,2.531-0.621
			C130.272,132.204,130.994,132.411,131.594,132.826z M130.975,136.911c0.232-0.849,0.144-1.548-0.266-2.097
			c-0.41-0.549-1.005-0.824-1.787-0.824c-0.782-0.001-1.528,0.273-2.238,0.822c-0.697,0.538-1.163,1.237-1.398,2.098
			c-0.236,0.858-0.151,1.559,0.249,2.096c0.194,0.26,0.445,0.459,0.756,0.6c0.311,0.14,0.656,0.209,1.036,0.209
			s0.765-0.069,1.151-0.208c0.387-0.141,0.747-0.339,1.083-0.599C130.27,138.46,130.742,137.761,130.975,136.911z"/>
	</g>
	<g>
		<path fill="#FFFFFF" d="M135.091,136.929c-0.099,0.362-0.123,0.709-0.071,1.04c0.052,0.333,0.174,0.627,0.368,0.887
			c0.192,0.259,0.439,0.457,0.74,0.599c0.299,0.139,0.634,0.209,1.004,0.209l-0.502,1.834c-0.846-0.002-1.569-0.205-2.17-0.615
			c-0.601-0.409-1.012-0.966-1.23-1.671c-0.233-0.693-0.235-1.455-0.009-2.283l2.472-9.024h1.87l-1.217,4.442l2.789,0.002
			l-0.507,1.849l-2.788-0.002L135.091,136.929z"/>
	</g>
	<g>
		<path fill="#FFFFFF" d="M146.745,141.484l-1.87-0.001l1.28-4.675c0.099-0.363,0.123-0.71,0.071-1.041s-0.175-0.627-0.368-0.886
			s-0.439-0.458-0.74-0.599c-0.299-0.14-0.634-0.21-1.003-0.21c-0.37,0-0.743,0.07-1.12,0.21c-0.376,0.14-0.732,0.339-1.067,0.597
			c-0.335,0.26-0.619,0.554-0.852,0.886c-0.233,0.331-0.4,0.678-0.5,1.041l-1.284,4.69h-1.87l3.722-13.592h1.87l-1.434,5.235
			c1.01-0.601,2.022-0.9,3.037-0.899c0.845,0,1.569,0.201,2.171,0.605c0.603,0.404,1.019,0.959,1.249,1.663
			c0.222,0.693,0.218,1.461-0.012,2.299L146.745,141.484z"/>
	</g>
	<g>
		<path fill="#FFFFFF" d="M149.996,132.336h1.87l-2.511,9.165l-1.869-0.001L149.996,132.336z M150.706,129.741l1.87,0.001
			l0.502-1.833h-1.87L150.706,129.741z"/>
	</g>
	<g>
		<path fill="#FFFFFF" d="M159.452,141.505h-1.887l1.255-4.583c0.1-0.362,0.124-0.712,0.073-1.049
			c-0.051-0.336-0.173-0.634-0.365-0.894c-0.193-0.258-0.44-0.458-0.74-0.598c-0.299-0.141-0.64-0.211-1.02-0.211l-2.759-0.001
			l-2.008,7.332l-1.886-0.001l2.51-9.165l4.645,0.003c0.855,0,1.587,0.201,2.195,0.606c0.607,0.403,1.024,0.963,1.253,1.678
			c0.222,0.694,0.217,1.46-0.013,2.299L159.452,141.505z"/>
	</g>
	<g>
		<path fill="#FFFFFF" d="M169.436,141.275c-0.027,0.104-0.052,0.17-0.07,0.202c-0.25,0.797-0.679,1.53-1.283,2.197
			c-0.606,0.668-1.311,1.199-2.116,1.591c-0.826,0.394-1.646,0.591-2.46,0.59l0.507-1.849c0.37,0,0.744-0.067,1.124-0.201
			s0.738-0.331,1.074-0.59c0.691-0.56,1.139-1.206,1.339-1.941l0.192-0.698c-0.968,0.601-1.98,0.9-3.036,0.899
			c-0.846,0-1.569-0.205-2.169-0.613c-0.603-0.41-1.012-0.968-1.231-1.671c-0.232-0.694-0.236-1.456-0.009-2.284
			c0.147-0.538,0.382-1.057,0.702-1.553c0.321-0.498,0.706-0.947,1.154-1.352c0.563-0.508,1.19-0.909,1.884-1.204
			c0.693-0.294,1.385-0.446,2.075-0.457l4.77,0.002L169.436,141.275z M168.745,136.91l0.749-2.733l-2.789-0.003
			c-0.423,0-0.846,0.086-1.267,0.258c-0.422,0.17-0.809,0.416-1.161,0.736c-0.562,0.508-0.932,1.087-1.11,1.739
			c-0.099,0.364-0.123,0.711-0.071,1.042c0.053,0.331,0.175,0.626,0.368,0.885c0.193,0.26,0.438,0.459,0.739,0.599
			c0.3,0.14,0.635,0.211,1.005,0.211c0.58,0,1.128-0.146,1.641-0.436c0.512-0.289,0.931-0.641,1.256-1.055
			C168.41,137.77,168.624,137.355,168.745,136.91z"/>
	</g>
</g>
<g>
	<polygon fill="#FFFFFF" points="42.542,113 19.979,90.27 88.309,21.855 156.639,89.997 123.445,123 126.543,123 159.737,89.954 
		88.309,18.601 16.88,90.233 39.444,113 	"/>
	<polygon fill="#FFFFFF" points="98.453,148 88.309,158.288 73.843,143.982 73.333,146 72.602,146 88.309,161.475 101.551,148 	"/>
</g>
</svg>
